<svg width="40" height="40" viewBox="0 0 40 40" fill="none" xmlns="http://www.w3.org/2000/svg">
<path d="M27.2758 10.6921C24.1258 10.6921 22.7945 12.1953 20.6008 12.1953C18.3516 12.1953 16.6359 10.7031 13.9063 10.7031C11.2344 10.7031 8.38517 12.3343 6.57579 15.1132C4.03517 19.032 4.46642 26.4125 8.58126 32.7C10.0531 34.9507 12.0188 37.475 14.5969 37.5023H14.6438C16.8844 37.5023 17.55 36.0351 20.6336 36.0179H20.6805C23.718 36.0179 24.3274 37.4937 26.5586 37.4937H26.6055C29.1836 37.4664 31.2547 34.6695 32.7266 32.4273C33.7859 30.8148 34.1797 30.0054 34.9922 28.1812C29.0399 25.9218 28.0836 17.4835 33.9703 14.2484C32.1734 11.9984 29.6484 10.6953 27.268 10.6953L27.2758 10.6921Z" fill="white"/>
<path d="M26.5818 2.5C24.7068 2.62734 22.5193 3.82109 21.2381 5.37969C20.0756 6.79219 19.1193 8.8875 19.4943 10.9195H19.6443C21.6412 10.9195 23.6849 9.71719 24.8787 8.17656C26.0287 6.71016 26.9006 4.63203 26.5818 2.5Z" fill="white"/>
</svg>
