<svg width="25" height="24" viewBox="0 0 25 24" fill="none" xmlns="http://www.w3.org/2000/svg">
<path d="M16.4726 16.1476C16.7496 15.1773 16.9329 14.0499 17.0028 12.9676C17.0043 12.9393 17 12.911 16.9902 12.8845C16.9803 12.8579 16.9651 12.8337 16.9455 12.8132C16.9259 12.7928 16.9023 12.7766 16.8762 12.7657C16.8501 12.7547 16.822 12.7493 16.7937 12.7496H13.4628C13.4355 12.7494 13.4084 12.7545 13.3832 12.7647C13.3579 12.7749 13.3348 12.79 13.3154 12.8091C13.2959 12.8282 13.2804 12.851 13.2698 12.8761C13.2591 12.9012 13.2535 12.9281 13.2532 12.9554V15.5476C13.2538 15.5999 13.2741 15.6502 13.3101 15.6882C13.3461 15.7263 13.3951 15.7494 13.4473 15.7529C14.386 15.8288 15.3135 16.0078 16.2129 16.2868C16.2658 16.3027 16.3229 16.297 16.3715 16.2709C16.4202 16.2448 16.4566 16.2004 16.4726 16.1476ZM15.6678 17.686C14.9542 17.4777 14.223 17.3351 13.4834 17.2599C13.4548 17.2567 13.4259 17.2595 13.3985 17.2681C13.371 17.2767 13.3457 17.2909 13.324 17.3098C13.3024 17.3287 13.2849 17.3519 13.2727 17.378C13.2605 17.404 13.2539 17.4323 13.2532 17.461V20.5191C13.2544 20.5556 13.265 20.5912 13.2841 20.6223C13.3032 20.6534 13.33 20.679 13.3621 20.6965C13.3941 20.714 13.4301 20.7229 13.4666 20.7222C13.5031 20.7215 13.5388 20.7113 13.5701 20.6926C14.3154 20.2581 14.9295 19.5282 15.4845 18.5631C15.5754 18.4056 15.7137 18.1341 15.7971 17.9682C15.8101 17.9415 15.817 17.9123 15.8173 17.8826C15.8176 17.8529 15.8114 17.8236 15.799 17.7966C15.7867 17.7696 15.7685 17.7457 15.7458 17.7266C15.7231 17.7075 15.6964 17.6936 15.6678 17.686ZM11.5292 17.2684C10.7905 17.3386 10.0599 17.477 9.34667 17.6818C9.22292 17.7174 9.17089 17.8881 9.22714 18.0001C9.31104 18.167 9.41464 18.3802 9.50323 18.5396C10.1126 19.6177 10.7614 20.2974 11.4364 20.6926C11.4677 20.7113 11.5034 20.7215 11.5399 20.7222C11.5763 20.7229 11.6124 20.714 11.6444 20.6965C11.6764 20.679 11.7033 20.6534 11.7224 20.6223C11.7415 20.5912 11.7521 20.5556 11.7532 20.5191V17.4596C11.753 17.4317 11.7468 17.4041 11.735 17.3788C11.7232 17.3535 11.7061 17.331 11.6848 17.3129C11.6636 17.2947 11.6387 17.2814 11.6118 17.2737C11.585 17.266 11.5568 17.2642 11.5292 17.2684ZM11.5437 12.7496H8.21276C8.18449 12.7493 8.15644 12.7547 8.13035 12.7656C8.10427 12.7765 8.0807 12.7927 8.0611 12.8131C8.04151 12.8335 8.0263 12.8576 8.01643 12.8841C8.00656 12.9106 8.00222 12.9389 8.0037 12.9671C8.07308 14.0481 8.25542 15.1777 8.53151 16.1471C8.53934 16.1736 8.55236 16.1984 8.56981 16.2198C8.58726 16.2413 8.60879 16.2591 8.63316 16.2721C8.65754 16.2852 8.68426 16.2933 8.71179 16.296C8.73932 16.2987 8.76711 16.2959 8.79354 16.2877C9.69294 16.0087 10.6205 15.8301 11.5592 15.7552C11.6115 15.7518 11.6606 15.7288 11.6967 15.6907C11.7327 15.6526 11.7531 15.6024 11.7537 15.5499V12.9559C11.7535 12.9285 11.7479 12.9015 11.7373 12.8763C11.7266 12.8511 11.7111 12.8283 11.6916 12.8091C11.672 12.7899 11.6489 12.7748 11.6236 12.7646C11.5982 12.7544 11.571 12.7493 11.5437 12.7496ZM13.4843 6.7393C14.2234 6.67005 14.9537 6.52651 15.664 6.31087C15.6925 6.30316 15.719 6.28928 15.7415 6.27021C15.7641 6.25115 15.7822 6.22735 15.7945 6.20052C15.8069 6.17369 15.8132 6.14448 15.813 6.11494C15.8128 6.08541 15.8061 6.05628 15.7934 6.02962C15.7095 5.86227 15.5932 5.62274 15.5042 5.4629C14.9281 4.43165 14.2789 3.71212 13.571 3.30665C13.5397 3.28808 13.504 3.27799 13.4676 3.27737C13.4312 3.27676 13.3952 3.28563 13.3632 3.30313C13.3312 3.32063 13.3044 3.34614 13.2853 3.37717C13.2661 3.4082 13.2554 3.44366 13.2542 3.48009V6.53774C13.2548 6.5665 13.2615 6.5948 13.2737 6.62085C13.2859 6.64691 13.3033 6.67014 13.325 6.68909C13.3466 6.70804 13.3719 6.72229 13.3994 6.73094C13.4268 6.73958 13.4557 6.74243 13.4843 6.7393ZM13.4628 11.2496H16.7937C16.8218 11.2501 16.8496 11.2448 16.8756 11.2341C16.9015 11.2234 16.925 11.2075 16.9446 11.1874C16.9642 11.1673 16.9794 11.1434 16.9894 11.1172C16.9995 11.091 17.004 11.063 17.0028 11.0349C16.9334 9.96759 16.7557 8.7943 16.4796 7.83712C16.4716 7.8108 16.4584 7.78634 16.4408 7.76513C16.4233 7.74392 16.4017 7.72639 16.3773 7.71355C16.353 7.7007 16.3264 7.69278 16.2989 7.69026C16.2715 7.68774 16.2439 7.69065 16.2176 7.69884C15.327 7.9679 14.3993 8.18774 13.4478 8.26134C13.3958 8.26429 13.3468 8.28681 13.3107 8.32437C13.2746 8.36193 13.2541 8.41176 13.2532 8.46384V11.0471C13.2542 11.1017 13.2768 11.1537 13.3161 11.1917C13.3554 11.2297 13.4081 11.2505 13.4628 11.2496ZM11.4364 3.30712C10.7135 3.70884 10.069 4.45227 9.49245 5.48071C9.40292 5.64055 9.29604 5.86087 9.2112 6.02774C9.19859 6.05442 9.19197 6.08353 9.19181 6.11304C9.19166 6.14255 9.19797 6.17173 9.2103 6.19854C9.22263 6.22535 9.24068 6.24913 9.26319 6.26821C9.2857 6.28729 9.31211 6.30121 9.34058 6.30899C10.0506 6.5286 10.7819 6.67268 11.5221 6.73884C11.5507 6.74196 11.5796 6.73912 11.607 6.73051C11.6344 6.72189 11.6597 6.70768 11.6813 6.68879C11.703 6.66989 11.7204 6.6467 11.7327 6.6207C11.7449 6.59471 11.7516 6.56646 11.7523 6.53774V3.48055C11.7508 3.44433 11.74 3.4091 11.7209 3.37828C11.7018 3.34746 11.6751 3.3221 11.6433 3.30465C11.6115 3.28721 11.5757 3.27827 11.5395 3.2787C11.5032 3.27913 11.4677 3.28892 11.4364 3.30712ZM11.5587 8.2618C10.6071 8.18915 9.67854 7.9693 8.78886 7.6993C8.76257 7.69112 8.73493 7.6882 8.70752 7.69073C8.68011 7.69325 8.65346 7.70117 8.62912 7.71401C8.60477 7.72686 8.5832 7.74439 8.56565 7.7656C8.54809 7.7868 8.5349 7.81127 8.52683 7.83759C8.25073 8.79477 8.07308 9.96805 8.0037 11.0354C8.00248 11.0634 8.00701 11.0914 8.01701 11.1177C8.02702 11.1439 8.04228 11.1678 8.06186 11.1879C8.08144 11.208 8.10493 11.2239 8.13088 11.2346C8.15683 11.2453 8.1847 11.2506 8.21276 11.2501H11.5437C11.5708 11.2505 11.5978 11.2456 11.623 11.2356C11.6482 11.2256 11.6712 11.2107 11.6907 11.1918C11.7101 11.1729 11.7257 11.1504 11.7364 11.1255C11.7472 11.1006 11.7529 11.0738 11.7532 11.0466V8.4643C11.7524 8.41222 11.7318 8.3624 11.6957 8.32484C11.6597 8.28728 11.6107 8.26476 11.5587 8.2618Z" fill="white"/>
<path d="M19.9245 4.57491C18.9512 3.59201 17.7933 2.81111 16.5173 2.27706C15.2414 1.743 13.8724 1.46633 12.4892 1.46292C11.106 1.45952 9.73573 1.72945 8.45714 2.25722C7.17856 2.78498 6.01685 3.56018 5.03876 4.53827C4.06067 5.51636 3.28547 6.67807 2.75771 7.95666C2.22994 9.23524 1.96001 10.6055 1.96341 11.9887C1.96682 13.372 2.24349 14.7409 2.77754 16.0169C3.3116 17.2928 4.0925 18.4507 5.0754 19.424C6.04866 20.4069 7.20654 21.1878 8.48251 21.7218C9.75849 22.2559 11.1274 22.5325 12.5106 22.536C13.8939 22.5394 15.2641 22.2694 16.5427 21.7417C17.8213 21.2139 18.983 20.4387 19.9611 19.4606C20.9392 18.4825 21.7144 17.3208 22.2421 16.0422C22.7699 14.7636 23.0398 13.3934 23.0364 12.0101C23.033 10.6269 22.7564 9.258 22.2223 7.98202C21.6883 6.70605 20.9074 5.54817 19.9245 4.57491ZM8.77805 20.1955C8.56685 19.8989 8.37158 19.5913 8.19305 19.274C8.0993 19.101 7.96618 18.8399 7.87758 18.6585C7.85728 18.6155 7.8282 18.5772 7.79223 18.546C7.75626 18.5149 7.71418 18.4916 7.66868 18.4776C7.62319 18.4637 7.57528 18.4594 7.52803 18.465C7.48078 18.4707 7.43524 18.4861 7.3943 18.5104C7.19274 18.6233 6.92555 18.7785 6.73196 18.9055C6.32598 18.5969 5.95544 18.2443 5.62711 17.8541C6.08116 17.5337 6.55753 17.2461 7.05258 16.9935C7.13977 16.9466 7.18243 16.8932 7.15477 16.7976C6.79206 15.5422 6.57053 14.2503 6.4943 12.9458C6.49203 12.8937 6.46988 12.8444 6.4324 12.808C6.39492 12.7717 6.34495 12.751 6.29274 12.7504H3.63305C3.61044 12.7506 3.5885 12.7427 3.57127 12.7281C3.55405 12.7134 3.54269 12.693 3.5393 12.6707C3.50984 12.4482 3.49668 12.2238 3.49993 11.9994C3.49672 11.7755 3.5102 11.5516 3.54024 11.3296C3.54363 11.3072 3.55498 11.2869 3.57221 11.2722C3.58944 11.2576 3.61138 11.2497 3.63399 11.2499H6.29368C6.40102 11.2499 6.48915 11.188 6.49477 11.0798C6.56999 9.78071 6.79011 8.49413 7.15102 7.24397C7.16446 7.19834 7.16156 7.14944 7.14282 7.10572C7.12408 7.06199 7.09068 7.02618 7.04836 7.00444C6.56394 6.75622 6.09665 6.47591 5.64961 6.16538C5.97619 5.77528 6.33942 5.4174 6.7343 5.09663C6.92555 5.22225 7.17493 5.36428 7.37461 5.47678C7.41862 5.5018 7.46729 5.51751 7.51762 5.52295C7.56794 5.5284 7.61885 5.52345 7.66718 5.50842C7.71552 5.49339 7.76026 5.4686 7.79863 5.43559C7.83699 5.40257 7.86817 5.36203 7.89024 5.31647C7.97836 5.13506 8.07774 4.93303 8.1743 4.75959C8.3536 4.43833 8.54981 4.12679 8.76211 3.82631C9.9309 3.27569 11.2079 2.99318 12.4999 2.99944C13.8565 2.99944 15.1202 3.32756 16.2748 3.86475C16.4786 4.15097 16.6664 4.4483 16.8373 4.75538C16.9587 4.97381 17.0876 5.24147 17.1963 5.4735C17.208 5.49821 17.2246 5.52028 17.2451 5.53836C17.2656 5.55644 17.2896 5.57015 17.3155 5.57867C17.3415 5.58718 17.3689 5.5903 17.3961 5.58786C17.4234 5.58541 17.4498 5.57744 17.4738 5.56444C17.726 5.42803 17.9993 5.271 18.2398 5.11303C18.6358 5.43695 18.9999 5.79797 19.3273 6.19116C18.8925 6.4927 18.4373 6.76381 17.9651 7.00256C17.9227 7.02432 17.8893 7.06024 17.8706 7.10409C17.8519 7.14793 17.8492 7.19692 17.8629 7.24256C18.2297 8.48424 18.4476 9.76509 18.5121 11.0582C18.5146 11.1101 18.5369 11.159 18.5744 11.1949C18.6119 11.2308 18.6618 11.251 18.7137 11.2513L21.3677 11.248C21.3903 11.2478 21.4123 11.2557 21.4295 11.2703C21.4467 11.285 21.4581 11.3054 21.4615 11.3277C21.5162 11.7732 21.5162 12.2238 21.4615 12.6693C21.4583 12.6918 21.447 12.7124 21.4298 12.7272C21.4125 12.7421 21.3905 12.7501 21.3677 12.7499H18.7113C18.6591 12.7505 18.6091 12.7711 18.5715 12.8074C18.534 12.8438 18.5119 12.8932 18.5098 12.9454C18.4368 14.2361 18.2187 15.5144 17.8596 16.7563C17.846 16.8025 17.8488 16.8519 17.8675 16.8963C17.8863 16.9406 17.9197 16.9771 17.9623 16.9996C18.1966 17.121 18.4577 17.2565 18.6827 17.3943C18.9077 17.5321 19.1304 17.6793 19.3451 17.8321C19.0203 18.2234 18.6593 18.5833 18.267 18.9069C18.1526 18.8315 18.0166 18.7457 17.8995 18.6754C17.8188 18.6285 17.6702 18.5455 17.5877 18.4991C17.4087 18.3988 17.2184 18.4738 17.1288 18.6585C17.0393 18.8432 16.9024 19.108 16.8068 19.2796C16.6306 19.595 16.4373 19.9006 16.2279 20.1951C15.0738 20.7355 13.8565 20.9994 12.4999 20.9994C11.1434 20.9994 9.93258 20.7355 8.77805 20.1955Z" fill="white"/>
</svg>
