<svg width="41" height="40" viewBox="0 0 41 40" fill="none" xmlns="http://www.w3.org/2000/svg">
<path d="M4.25 4.64789V35.351C4.25021 35.4176 4.27007 35.4827 4.30711 35.5381C4.34415 35.5934 4.39671 35.6366 4.4582 35.6622C4.51969 35.6879 4.58738 35.6947 4.65277 35.682C4.71816 35.6693 4.77835 35.6376 4.82578 35.5909L20.8125 20.0002L4.82578 4.40805C4.77835 4.36128 4.71816 4.32956 4.65277 4.31686C4.58738 4.30416 4.51969 4.31105 4.4582 4.33666C4.39671 4.36228 4.34415 4.40547 4.30711 4.46084C4.27007 4.51621 4.25021 4.58128 4.25 4.64789ZM27.5156 13.594L7.47031 2.55023L7.45781 2.5432C7.1125 2.3557 6.78437 2.82289 7.06719 3.09476L22.7805 18.1198L27.5156 13.594ZM7.06875 36.9057C6.78438 37.1776 7.1125 37.6448 7.45938 37.4573L7.47187 37.4502L27.5156 26.4065L22.7805 21.8791L7.06875 36.9057ZM35.6078 18.0471L30.0102 14.9643L24.7469 20.0002L30.0102 25.0338L35.6078 21.9534C37.1305 21.1119 37.1305 18.8885 35.6078 18.0471Z" fill="white"/>
</svg>
