<svg width="20" height="20" viewBox="0 0 20 20" fill="none" xmlns="http://www.w3.org/2000/svg">
<g clip-path="url(#clip0_9430_9881)">
<path d="M19.8438 2.1875C19.8438 1.0625 18.9375 0.15625 17.8125 0.15625H15.4688C15.2031 0.15625 15 0.359375 15 0.625C15 0.890625 15.2031 1.09375 15.4688 1.09375H17.8125C18.4219 1.09375 18.9062 1.57812 18.9062 2.1875V4.53125C18.9062 4.79688 19.1094 5 19.375 5C19.6406 5 19.8438 4.79688 19.8438 4.53125V2.1875ZM0.625 5C0.890625 5 1.09375 4.79688 1.09375 4.53125V2.1875C1.09375 1.57812 1.57812 1.09375 2.1875 1.09375H4.53125C4.79688 1.09375 5 0.890625 5 0.625C5 0.359375 4.79688 0.15625 4.53125 0.15625H2.1875C1.0625 0.15625 0.15625 1.0625 0.15625 2.1875V4.53125C0.15625 4.79688 0.359375 5 0.625 5ZM2.1875 19.8438H4.53125C4.79688 19.8438 5 19.6406 5 19.375C5 19.1094 4.79688 18.9062 4.53125 18.9062H2.1875C1.57812 18.9062 1.09375 18.4219 1.09375 17.8125V15.4688C1.09375 15.2031 0.890625 15 0.625 15C0.359375 15 0.15625 15.2031 0.15625 15.4688V17.8125C0.15625 18.9375 1.0625 19.8438 2.1875 19.8438ZM19.8438 17.8125V15.4688C19.8438 15.2031 19.6406 15 19.375 15C19.1094 15 18.9062 15.2031 18.9062 15.4688V17.8125C18.9062 18.4219 18.4219 18.9062 17.8125 18.9062H15.4688C15.2031 18.9062 15 19.1094 15 19.375C15 19.6406 15.2031 19.8438 15.4688 19.8438H17.8125C18.9375 19.8438 19.8438 18.9375 19.8438 17.8125ZM16.25 12.6562H13.125C12.8594 12.6562 12.6562 12.8594 12.6562 13.125V16.25C12.6562 16.5156 12.8594 16.7188 13.125 16.7188H16.25C16.5156 16.7188 16.7188 16.5156 16.7188 16.25V13.125C16.7188 12.8594 16.5156 12.6562 16.25 12.6562ZM15.7812 15.7812H13.5938V13.5938H15.7812V15.7812ZM9.0625 16.7188C9.32812 16.7188 9.53125 16.5156 9.53125 16.25V15.1562H10.9375C11.2031 15.1562 11.4062 14.9531 11.4062 14.6875V11.5625C11.4062 11.2969 11.2031 11.0938 10.9375 11.0938C10.6719 11.0938 10.4688 11.2969 10.4688 11.5625V14.2188H9.0625C8.79688 14.2188 8.59375 14.4219 8.59375 14.6875V16.25C8.59375 16.5156 8.79688 16.7188 9.0625 16.7188ZM16.25 7.34375C16.5156 7.34375 16.7188 7.14062 16.7188 6.875V3.75C16.7188 3.48438 16.5156 3.28125 16.25 3.28125H13.125C12.8594 3.28125 12.6562 3.48438 12.6562 3.75V6.875C12.6562 7.14062 12.8594 7.34375 13.125 7.34375H16.25ZM13.5938 4.21875H15.7812V6.40625H13.5938V4.21875ZM3.75 7.34375H6.875C7.14062 7.34375 7.34375 7.14062 7.34375 6.875V3.75C7.34375 3.48438 7.14062 3.28125 6.875 3.28125H3.75C3.48438 3.28125 3.28125 3.48438 3.28125 3.75V6.875C3.28125 7.14062 3.48438 7.34375 3.75 7.34375ZM4.21875 4.21875H6.40625V6.40625H4.21875V4.21875ZM3.75 10.4688H4.53125C4.79688 10.4688 5 10.2656 5 10C5 9.73438 4.79688 9.53125 4.53125 9.53125H3.75C3.48438 9.53125 3.28125 9.73438 3.28125 10C3.28125 10.2656 3.48438 10.4688 3.75 10.4688ZM9.0625 10.4688C9.32812 10.4688 9.53125 10.2656 9.53125 10V7.34375H10.9375C11.2031 7.34375 11.4062 7.14062 11.4062 6.875V3.75C11.4062 3.48438 11.2031 3.28125 10.9375 3.28125C10.6719 3.28125 10.4688 3.48438 10.4688 3.75V6.40625H9.0625C8.79688 6.40625 8.59375 6.60938 8.59375 6.875V9.53125H7.65625C7.39062 9.53125 7.1875 9.73438 7.1875 10C7.1875 10.2656 7.39062 10.4688 7.65625 10.4688H9.0625ZM11.875 9.0625C11.875 9.32812 12.0781 9.53125 12.3438 9.53125H13.75V10.9375C13.75 11.2031 13.9531 11.4062 14.2188 11.4062H16.25C16.5156 11.4062 16.7188 11.2031 16.7188 10.9375C16.7188 10.6719 16.5156 10.4688 16.25 10.4688H14.6875V9.0625C14.6875 8.79688 14.4844 8.59375 14.2188 8.59375H12.3438C12.0781 8.59375 11.875 8.79688 11.875 9.0625ZM7.34375 16.25V13.125C7.34375 12.8594 7.14062 12.6562 6.875 12.6562H3.75C3.48438 12.6562 3.28125 12.8594 3.28125 13.125V16.25C3.28125 16.5156 3.48438 16.7188 3.75 16.7188H6.875C7.14062 16.7188 7.34375 16.5156 7.34375 16.25ZM6.40625 15.7812H4.21875V13.5938H6.40625V15.7812Z" fill="#002444"/>
</g>
<defs>
<clipPath id="clip0_9430_9881">
<rect width="20" height="20" fill="white"/>
</clipPath>
</defs>
</svg>
